<?xml version="1.0" encoding="utf-8"?>
<!-- Generator: Adobe Illustrator 18.1.1, SVG Export Plug-In . SVG Version: 6.00 Build 0)  -->
<svg version="1.1" id="Layer_1" xmlns="http://www.w3.org/2000/svg" xmlns:xlink="http://www.w3.org/1999/xlink" x="0px" y="0px"
	 viewBox="-306 184.3 228 228" enable-background="new -306 184.3 228 228" xml:space="preserve">
<path d="M-192,198.3c-55.2,0-100,44.8-100,100c0,55.2,44.8,100,100,100c55.2,0,100-44.8,100-100C-92,243.1-136.8,198.3-192,198.3z
	 M-192,375.4c-42.6,0-77.1-34.5-77.1-77.1c0-42.6,34.5-77.1,77.1-77.1c42.6,0,77.1,34.5,77.1,77.1
	C-114.9,340.9-149.4,375.4-192,375.4z M-244.8,286.8l19,0c2.8,6.2,9.1,10.5,16.3,10.5s13.5-4.3,16.3-10.5l54,0
	c4.1,0,7.5-3.4,7.5-7.5c0-4.1-3.4-7.5-7.5-7.5l-54,0c-2.8-6.2-9.1-10.5-16.3-10.5c-7.2,0-13.5,4.3-16.3,10.5l-19,0
	c-4.1,0-7.5,3.4-7.5,7.5C-252.3,283.4-249,286.8-244.8,286.8z M-209.5,268.3c6.1,0,11,4.9,11,11s-4.9,11-11,11s-11-4.9-11-11
	S-215.5,268.3-209.5,268.3z M-139.2,309.8l-19,0c-2.8-6.2-9.1-10.5-16.3-10.5c-7.2,0-13.5,4.3-16.3,10.5l-54,0
	c-4.1,0-7.5,3.4-7.5,7.5c0,4.1,3.4,7.5,7.5,7.5l54,0c2.8,6.2,9.1,10.5,16.3,10.5s13.5-4.3,16.3-10.5l19,0c4.1,0,7.5-3.4,7.5-7.5
	C-131.7,313.1-135,309.8-139.2,309.8z M-174.5,328.3c-6.1,0-11-4.9-11-11s4.9-11,11-11s11,4.9,11,11S-168.5,328.3-174.5,328.3z"/>
</svg>
