<?xml version="1.0" encoding="utf-8"?>
<!-- Generator: Adobe Illustrator 18.1.1, SVG Export Plug-In . SVG Version: 6.00 Build 0)  -->
<svg version="1.1" id="Layer_1" xmlns="http://www.w3.org/2000/svg" xmlns:xlink="http://www.w3.org/1999/xlink" x="0px" y="0px"
	 viewBox="0 0 200 200" enable-background="new 0 0 200 200" xml:space="preserve">
<path fill="#231F20" d="M100,0C44.8,0,0,44.8,0,100s44.8,100,100,100c55.2,0,100-44.8,100-100S155.2,0,100,0z M100,177.1
	c-42.6,0-77.1-34.5-77.1-77.1c0-42.6,34.5-77.1,77.1-77.1c42.6,0,77.1,34.5,77.1,77.1C177.1,142.6,142.6,177.1,100,177.1z
	 M47.2,88.5l19,0C69.1,94.7,75.3,99,82.5,99S96,94.7,98.8,88.5l54,0c4.1,0,7.5-3.4,7.5-7.5c0-4.1-3.4-7.5-7.5-7.5l-54,0
	C96,67.3,89.7,63,82.5,63c-7.2,0-13.5,4.3-16.3,10.5l-19,0c-4.1,0-7.5,3.4-7.5,7.5C39.7,85.1,43,88.5,47.2,88.5z M82.5,70
	c6.1,0,11,4.9,11,11s-4.9,11-11,11s-11-4.9-11-11S76.5,70,82.5,70z M152.8,111.5l-19,0c-2.8-6.2-9.1-10.5-16.3-10.5
	c-7.2,0-13.5,4.3-16.3,10.5l-54,0c-4.1,0-7.5,3.4-7.5,7.5c0,4.1,3.4,7.5,7.5,7.5l54,0c2.8,6.2,9.1,10.5,16.3,10.5
	s13.5-4.3,16.3-10.5l19,0c4.1,0,7.5-3.4,7.5-7.5C160.3,114.9,157,111.5,152.8,111.5z M117.5,130c-6.1,0-11-4.9-11-11s4.9-11,11-11
	s11,4.9,11,11S123.5,130,117.5,130z"/>
</svg>
