<?xml version="1.0" encoding="utf-8"?>
<!-- Generator: Adobe Illustrator 18.1.1, SVG Export Plug-In . SVG Version: 6.00 Build 0)  -->
<svg version="1.1" id="Layer_1" xmlns="http://www.w3.org/2000/svg" xmlns:xlink="http://www.w3.org/1999/xlink" x="0px" y="0px"
	 viewBox="0 0 200 200" enable-background="new 0 0 200 200" xml:space="preserve">
<path fill="#231F20" d="M100,0C44.8,0,0,44.8,0,100c0,25.2,9.3,48.2,24.7,65.8L18.4,200l33.9-12.1c14.2,7.7,30.4,12,47.6,12
	c55.2,0,100-44.8,100-100C200,44.8,155.2,0,100,0z M100,177.1c-42.6,0-77.1-34.5-77.1-77.1c0-42.6,34.5-77.1,77.1-77.1
	c42.6,0,77.1,34.5,77.1,77.1C177.1,142.6,142.6,177.1,100,177.1z M70,90c-5.5,0-10,4.5-10,10c0,5.5,4.5,10,10,10c5.5,0,10-4.5,10-10
	C80,94.5,75.5,90,70,90z M100,90c-5.5,0-10,4.5-10,10c0,5.5,4.5,10,10,10s10-4.5,10-10C110,94.5,105.5,90,100,90z M130,90
	c-5.5,0-10,4.5-10,10c0,5.5,4.5,10,10,10c5.5,0,10-4.5,10-10C140,94.5,135.5,90,130,90z"/>
</svg>
