<?xml version="1.0" encoding="utf-8"?>
<!-- Generator: Adobe Illustrator 18.1.1, SVG Export Plug-In . SVG Version: 6.00 Build 0)  -->
<svg version="1.1" id="Layer_1" xmlns="http://www.w3.org/2000/svg" xmlns:xlink="http://www.w3.org/1999/xlink" x="0px" y="0px"
	 viewBox="0 0 200 200" enable-background="new 0 0 200 200" xml:space="preserve">
<g>
	<path fill="#231F20" d="M56.3,18.9C68.4,6.8,82.9,0.8,99.7,0.8c16.9,0,31.4,6,43.7,18.1c12.2,12.1,18.3,26.7,18.3,43.9
		c0,17.6-5.2,37.7-15.5,60.5s-20.7,41.2-31,55.3l-15.5,20.7c-1.7-2.1-4-5-6.7-8.8c-2.8-3.8-7.7-11.1-14.7-22
		c-7.1-10.9-13.3-21.5-18.6-32C54.3,125.9,49.4,113.8,45,100c-4.5-13.8-6.7-26.2-6.7-37.2C38.2,45.6,44.3,30.9,56.3,18.9z
		 M79.3,84.2c5.7,5.7,12.5,8.5,20.4,8.5c7.9,0,14.8-2.8,20.7-8.5c5.9-5.7,8.8-12.5,8.8-20.4c0-7.9-2.9-14.8-8.8-20.7
		c-5.9-5.9-12.7-8.8-20.7-8.8c-7.9,0-14.7,2.9-20.4,8.8c-5.7,5.9-8.5,12.7-8.5,20.7C70.8,71.8,73.6,78.6,79.3,84.2z"/>
</g>
</svg>
