<?xml version="1.0" encoding="utf-8"?>
<!-- Generator: Adobe Illustrator 16.0.0, SVG Export Plug-In . SVG Version: 6.00 Build 0)  -->
<!DOCTYPE svg PUBLIC "-//W3C//DTD SVG 1.1//EN" "http://www.w3.org/Graphics/SVG/1.1/DTD/svg11.dtd">
<svg version="1.1" xmlns="http://www.w3.org/2000/svg" xmlns:xlink="http://www.w3.org/1999/xlink" x="0px" y="0px" width="228px"
	 height="228px" viewBox="0 0 228 228" enable-background="new 0 0 228 228" xml:space="preserve">
<g id="Layer_1" display="none">
	<path display="inline" d="M213.856,99.527c0-55.229-44.773-100-100.002-100c-55.228,0-99.999,44.771-99.999,100
		c0,49.525,36.006,90.636,83.266,98.599l16.735,28.986l16.735-28.987C177.852,190.16,213.856,149.052,213.856,99.527z
		 M113.854,22.384c32.085,0,59.589,19.591,71.218,47.461l-54.841,54.901c-2.103-0.612-4.342-0.616-6.446-0.019l-27.268-27.27
		c1.155-3.944,0.177-8.38-2.935-11.491c-4.541-4.541-11.898-4.54-16.438,0.001c-3.115,3.114-4.093,7.555-2.932,11.503
		l-31.621,31.618c-3.782-9.106-5.88-19.088-5.88-29.562C36.712,56.922,71.255,22.384,113.854,22.384z M113.854,176.67
		c-27.948,0-52.429-14.868-65.962-37.125l34.208-34.204c2.134,0.623,4.408,0.622,6.54-0.002l27.203,27.207
		c-1.193,3.969-0.223,8.446,2.915,11.58c4.543,4.539,11.9,4.533,16.438-0.012c3.114-3.115,4.088-7.556,2.925-11.503l50.798-50.854
		c1.346,5.708,2.08,11.651,2.08,17.77C190.999,142.128,156.46,176.67,113.854,176.67z"/>
</g>
<g id="Layer_2">
	<path fill="#231F20" d="M113.573,13.343c-55.227,0-99.999,44.771-99.999,100c0,25.212,9.334,48.243,24.73,65.832l-6.291,34.188
		l33.937-12.067c14.159,7.683,30.381,12.048,47.623,12.048c55.229,0,100.003-44.771,100.003-100
		C213.576,58.115,168.803,13.343,113.573,13.343z M113.573,190.486c-42.6,0-77.142-34.543-77.142-77.143
		c0-42.605,34.542-77.144,77.142-77.144c42.607,0,77.146,34.538,77.146,77.144C190.719,155.943,156.181,190.486,113.573,190.486z
		 M83.556,103.343c-5.523,0-10,4.477-10,10c0,5.522,4.477,10,10,10s10-4.479,10-10C93.556,107.82,89.079,103.343,83.556,103.343z
		 M113.575,103.343c-5.522,0-10,4.477-10,10c0,5.522,4.478,10,10,10s10-4.479,10-10C123.575,107.82,119.098,103.343,113.575,103.343
		z M143.594,103.343c-5.523,0-10,4.477-10,10c0,5.522,4.477,10,10,10c5.522,0,10-4.479,10-10
		C153.594,107.82,149.116,103.343,143.594,103.343z"/>
</g>
</svg>
