<?xml version="1.0" encoding="utf-8"?>
<!-- Generator: Adobe Illustrator 18.1.1, SVG Export Plug-In . SVG Version: 6.00 Build 0)  -->
<svg version="1.1" id="Layer_1" xmlns="http://www.w3.org/2000/svg" xmlns:xlink="http://www.w3.org/1999/xlink" x="0px" y="0px"
	 viewBox="0 0 200 200" enable-background="new 0 0 200 200" xml:space="preserve">
<path fill="#231F20" d="M146.1,110.1l53.7-31.7V68l-53.7,31.7V110.1z M199.7,57.5l-70-48.9L76.2,37.5l69.9,51.7L199.7,57.5z
	 M0.3,129.2v10.5l69.9,51.7l53.7-31.7v-10.5l-53.7,31.7L0.3,129.2z M0.3,108.3v10.5l69.9,51.7l53.7-31.7v-10.5L70.2,160L0.3,108.3z
	 M0.3,87.4v10.5l69.9,51.7l53.7-31.7v-10.5l-53.7,31.7L0.3,87.4z M0.3,76.9l69.9,51.7l53.7-31.7L53.9,48L0.3,76.9z M146.1,131.1
	l53.7-31.7V88.9l-53.7,31.7V131.1z M146.1,152l53.7-31.7v-10.5l-53.7,31.7V152z"/>
</svg>
