<?xml version="1.0" encoding="utf-8"?>
<!-- Generator: Adobe Illustrator 18.1.1, SVG Export Plug-In . SVG Version: 6.00 Build 0)  -->
<svg version="1.1" id="Layer_1" xmlns="http://www.w3.org/2000/svg" xmlns:xlink="http://www.w3.org/1999/xlink" x="0px" y="0px"
	 viewBox="-306 184.3 228 228" enable-background="new -306 184.3 228 228" xml:space="preserve">
<g>
	<path d="M-192,198.2c-55.3,0-100.1,44.8-100.1,100.1s44.8,100.1,100.1,100.1c55.3,0,100.1-44.8,100.1-100.1S-136.7,198.2-192,198.2
		z M-192,375.5c-42.6,0-77.2-34.6-77.2-77.2c0-42.6,34.6-77.2,77.2-77.2c42.6,0,77.2,34.6,77.2,77.2
		C-114.8,340.9-149.4,375.5-192,375.5z"/>
	<g>
		<polygon points="-234.3,341.5 -234.3,255.1 -193.2,298.3 		"/>
		<path d="M-173.3,303.1c-2.6,2.6-35.9,37.6-35.9,37.6v0.8h52.7c3.7,0,6.8-3,6.8-6.8v-72.9c0-3.7-3-6.8-6.8-6.8h-52.7v0.8
			c0,0,33.6,35.5,35.8,37.6C-170.6,296.2-170.2,300-173.3,303.1z"/>
	</g>
</g>
</svg>
