<?xml version="1.0" encoding="utf-8"?>
<!-- Generator: Adobe Illustrator 18.1.1, SVG Export Plug-In . SVG Version: 6.00 Build 0)  -->
<svg version="1.1" id="Layer_1" xmlns="http://www.w3.org/2000/svg" xmlns:xlink="http://www.w3.org/1999/xlink" x="0px" y="0px"
	 viewBox="0 0 200 200" enable-background="new 0 0 200 200" xml:space="preserve">
<path fill="#231F20" d="M187.9,87.9C187.9,39.3,148.5,0,100,0C51.5,0,12.1,39.3,12.1,87.9c0,43.5,31.6,79.7,73.2,86.6L100,200
	l14.7-25.5C156.2,167.5,187.9,131.4,187.9,87.9z M100,20.1c28.2,0,52.4,17.2,62.6,41.7L114.4,110c-1.8-0.5-3.8-0.5-5.7,0l-24-24
	c1-3.5,0.2-7.4-2.6-10.1c-4-4-10.5-4-14.4,0c-2.7,2.7-3.6,6.6-2.6,10.1l-27.8,27.8c-3.3-8-5.2-16.8-5.2-26
	C32.2,50.4,62.6,20.1,100,20.1z M100,155.7c-24.6,0-46.1-13.1-58-32.6L72.1,93c1.9,0.5,3.9,0.5,5.7,0l23.9,23.9
	c-1,3.5-0.2,7.4,2.6,10.2c4,4,10.5,4,14.4,0c2.7-2.7,3.6-6.6,2.6-10.1L166,72.3c1.2,5,1.8,10.2,1.8,15.6
	C167.8,125.3,137.4,155.7,100,155.7z"/>
</svg>
