<?xml version="1.0" encoding="utf-8"?>
<!-- Generator: Adobe Illustrator 18.1.1, SVG Export Plug-In . SVG Version: 6.00 Build 0)  -->
<svg version="1.1" id="Layer_1" xmlns="http://www.w3.org/2000/svg" xmlns:xlink="http://www.w3.org/1999/xlink" x="0px" y="0px"
	 viewBox="-306 184.3 228 228" enable-background="new -306 184.3 228 228" xml:space="preserve">
<path d="M-136.4,198.3h-112.2c-10.8,0-16.9,5.6-16.9,16.4v183.6h47.1v-41c0-3.7,3-6.7,6.7-6.7h39.6c3.7,0,6.7,3,6.7,6.7v41h47.1
	V214.7C-118.4,203.9-125.6,198.3-136.4,198.3z M-219.3,320.5c0,3.7-3,6.7-6.7,6.7h-12.5c-3.7,0-6.7-3-6.7-6.7v-11.7
	c0-3.7,3-6.7,6.7-6.7h12.5c3.7,0,6.7,3,6.7,6.7V320.5z M-219.3,280.5c0,3.7-3,6.7-6.7,6.7h-12.5c-3.7,0-6.7-3-6.7-6.7v-11.7
	c0-3.7,3-6.7,6.7-6.7h12.5c3.7,0,6.7,3,6.7,6.7V280.5z M-219.3,240.4c0,3.7-3,6.7-6.7,6.7h-12.5c-3.7,0-6.7-3-6.7-6.7v-11.7
	c0-3.7,3-6.7,6.7-6.7h12.5c3.7,0,6.7,3,6.7,6.7V240.4z M-179.1,320.5c0,3.7-3,6.7-6.7,6.7h-12.5c-3.7,0-6.7-3-6.7-6.7v-11.7
	c0-3.7,3-6.7,6.7-6.7h12.5c3.7,0,6.7,3,6.7,6.7V320.5z M-179.1,280.5c0,3.7-3,6.7-6.7,6.7h-12.5c-3.7,0-6.7-3-6.7-6.7v-11.7
	c0-3.7,3-6.7,6.7-6.7h12.5c3.7,0,6.7,3,6.7,6.7V280.5z M-179.1,240.4c0,3.7-3,6.7-6.7,6.7h-12.5c-3.7,0-6.7-3-6.7-6.7v-11.7
	c0-3.7,3-6.7,6.7-6.7h12.5c3.7,0,6.7,3,6.7,6.7V240.4z M-138.8,320.5c0,3.7-3,6.7-6.7,6.7H-158c-3.7,0-6.7-3-6.7-6.7v-11.7
	c0-3.7,3-6.7,6.7-6.7h12.5c3.7,0,6.7,3,6.7,6.7V320.5z M-138.8,280.5c0,3.7-3,6.7-6.7,6.7H-158c-3.7,0-6.7-3-6.7-6.7v-11.7
	c0-3.7,3-6.7,6.7-6.7h12.5c3.7,0,6.7,3,6.7,6.7V280.5z M-138.8,240.4c0,3.7-3,6.7-6.7,6.7H-158c-3.7,0-6.7-3-6.7-6.7v-11.7
	c0-3.7,3-6.7,6.7-6.7h12.5c3.7,0,6.7,3,6.7,6.7V240.4z"/>
</svg>
