<?xml version="1.0" encoding="utf-8"?>
<!-- Generator: Adobe Illustrator 18.1.1, SVG Export Plug-In . SVG Version: 6.00 Build 0)  -->
<svg version="1.1" id="Layer_1" xmlns="http://www.w3.org/2000/svg" xmlns:xlink="http://www.w3.org/1999/xlink" x="0px" y="0px"
	 viewBox="0 0 200 200" enable-background="new 0 0 200 200" xml:space="preserve">
<path fill="#231F20" d="M155.6,0H43.4C32.6,0,26.4,5.6,26.4,16.4V200h47.1v-41c0-3.7,3-6.7,6.7-6.7h39.6c3.7,0,6.7,3,6.7,6.7v41
	h47.1V16.4C173.6,5.6,166.4,0,155.6,0z M72.7,122.3c0,3.7-3,6.7-6.7,6.7H53.5c-3.7,0-6.7-3-6.7-6.7v-11.7c0-3.7,3-6.7,6.7-6.7H66
	c3.7,0,6.7,3,6.7,6.7V122.3z M72.7,82.2c0,3.7-3,6.7-6.7,6.7H53.5c-3.7,0-6.7-3-6.7-6.7V70.5c0-3.7,3-6.7,6.7-6.7H66
	c3.7,0,6.7,3,6.7,6.7V82.2z M72.7,42.1c0,3.7-3,6.7-6.7,6.7H53.5c-3.7,0-6.7-3-6.7-6.7V30.5c0-3.7,3-6.7,6.7-6.7H66
	c3.7,0,6.7,3,6.7,6.7V42.1z M112.9,122.3c0,3.7-3,6.7-6.7,6.7H93.7c-3.7,0-6.7-3-6.7-6.7v-11.7c0-3.7,3-6.7,6.7-6.7h12.5
	c3.7,0,6.7,3,6.7,6.7V122.3z M112.9,82.2c0,3.7-3,6.7-6.7,6.7H93.7c-3.7,0-6.7-3-6.7-6.7V70.5c0-3.7,3-6.7,6.7-6.7h12.5
	c3.7,0,6.7,3,6.7,6.7V82.2z M112.9,42.1c0,3.7-3,6.7-6.7,6.7H93.7c-3.7,0-6.7-3-6.7-6.7V30.5c0-3.7,3-6.7,6.7-6.7h12.5
	c3.7,0,6.7,3,6.7,6.7V42.1z M153.2,122.3c0,3.7-3,6.7-6.7,6.7H134c-3.7,0-6.7-3-6.7-6.7v-11.7c0-3.7,3-6.7,6.7-6.7h12.5
	c3.7,0,6.7,3,6.7,6.7V122.3z M153.2,82.2c0,3.7-3,6.7-6.7,6.7H134c-3.7,0-6.7-3-6.7-6.7V70.5c0-3.7,3-6.7,6.7-6.7h12.5
	c3.7,0,6.7,3,6.7,6.7V82.2z M153.2,42.1c0,3.7-3,6.7-6.7,6.7H134c-3.7,0-6.7-3-6.7-6.7V30.5c0-3.7,3-6.7,6.7-6.7h12.5
	c3.7,0,6.7,3,6.7,6.7V42.1z"/>
</svg>
