<?xml version="1.0" encoding="utf-8"?>
<!-- Generator: Adobe Illustrator 18.1.1, SVG Export Plug-In . SVG Version: 6.00 Build 0)  -->
<svg version="1.1" id="Layer_1" xmlns="http://www.w3.org/2000/svg" xmlns:xlink="http://www.w3.org/1999/xlink" x="0px" y="0px"
	 viewBox="0 0 200 200" enable-background="new 0 0 200 200" xml:space="preserve">
<path fill="#231F20" d="M155,50H45V20h110V50z M145,90c-5.5,0-10-4.5-10-10c0-5.5,4.5-10,10-10c5.5,0,10,4.5,10,10
	C155,85.5,150.5,90,145,90 M145,120c-5.5,0-10-4.5-10-10c0-5.5,4.5-10,10-10c5.5,0,10,4.5,10,10C155,115.5,150.5,120,145,120
	 M145,150c-5.5,0-10-4.5-10-10c0-5.5,4.5-10,10-10c5.5,0,10,4.5,10,10C155,145.5,150.5,150,145,150 M145,180c-5.5,0-10-4.5-10-10
	c0-5.5,4.5-10,10-10c5.5,0,10,4.5,10,10C155,175.5,150.5,180,145,180 M115,90c-5.5,0-10-4.5-10-10c0-5.5,4.5-10,10-10
	c5.5,0,10,4.5,10,10C125,85.5,120.5,90,115,90 M115,120c-5.5,0-10-4.5-10-10c0-5.5,4.5-10,10-10c5.5,0,10,4.5,10,10
	C125,115.5,120.5,120,115,120 M115,150c-5.5,0-10-4.5-10-10c0-5.5,4.5-10,10-10c5.5,0,10,4.5,10,10C125,145.5,120.5,150,115,150
	 M115,180c-5.5,0-10-4.5-10-10c0-5.5,4.5-10,10-10c5.5,0,10,4.5,10,10C125,175.5,120.5,180,115,180 M85,90c-5.5,0-10-4.5-10-10
	c0-5.5,4.5-10,10-10c5.5,0,10,4.5,10,10C95,85.5,90.5,90,85,90 M85,120c-5.5,0-10-4.5-10-10c0-5.5,4.5-10,10-10c5.5,0,10,4.5,10,10
	C95,115.5,90.5,120,85,120 M85,150c-5.5,0-10-4.5-10-10c0-5.5,4.5-10,10-10c5.5,0,10,4.5,10,10C95,145.5,90.5,150,85,150 M85,180
	c-5.5,0-10-4.5-10-10c0-5.5,4.5-10,10-10c5.5,0,10,4.5,10,10C95,175.5,90.5,180,85,180 M55,90c-5.5,0-10-4.5-10-10
	c0-5.5,4.5-10,10-10c5.5,0,10,4.5,10,10C65,85.5,60.5,90,55,90 M55,120c-5.5,0-10-4.5-10-10c0-5.5,4.5-10,10-10c5.5,0,10,4.5,10,10
	C65,115.5,60.5,120,55,120 M55,150c-5.5,0-10-4.5-10-10c0-5.5,4.5-10,10-10c5.5,0,10,4.5,10,10C65,145.5,60.5,150,55,150 M55,180
	c-5.5,0-10-4.5-10-10c0-5.5,4.5-10,10-10c5.5,0,10,4.5,10,10C65,175.5,60.5,180,55,180 M155,0H45C34,0,25,9,25,20v160
	c0,11,9,20,20,20h110c11,0,20-8.9,20-20V20C175,9,166.1,0,155,0"/>
</svg>
