<?xml version="1.0" encoding="utf-8"?>
<!-- Generator: Adobe Illustrator 16.0.0, SVG Export Plug-In . SVG Version: 6.00 Build 0)  -->
<!DOCTYPE svg PUBLIC "-//W3C//DTD SVG 1.1//EN" "http://www.w3.org/Graphics/SVG/1.1/DTD/svg11.dtd">
<svg version="1.1" id="Layer_2" xmlns="http://www.w3.org/2000/svg" xmlns:xlink="http://www.w3.org/1999/xlink" x="0px" y="0px"
	 width="228px" height="228px" viewBox="0 0 228 228" enable-background="new 0 0 228 228" xml:space="preserve">
<path d="M168.836,13.355H58.818c-11.028,0-19.983,8.95-19.983,19.989v160.026c0,11.039,8.955,19.984,19.983,19.984h110.018
	c11.045,0,19.989-8.945,19.989-19.984V33.345C188.825,22.306,179.881,13.355,168.836,13.355z M68.817,193.345
	c-5.515,0-10.01-4.469-10.01-9.995c0-5.524,4.495-9.998,10.01-9.998s9.998,4.474,9.998,9.998
	C78.815,188.876,74.332,193.345,68.817,193.345z M68.817,163.354c-5.515,0-10.01-4.489-10.01-10.009
	c0-5.514,4.495-9.999,10.01-9.999s9.998,4.485,9.998,9.999C78.815,158.865,74.332,163.354,68.817,163.354z M68.817,133.351
	c-5.515,0-10.01-4.491-10.01-10.005s4.495-10.007,10.01-10.007s9.998,4.493,9.998,10.007S74.332,133.351,68.817,133.351z
	 M68.817,103.352c-5.515,0-10.01-4.482-10.01-9.999c0-5.525,4.495-10.002,10.01-10.002s9.998,4.477,9.998,10.002
	C78.815,98.869,74.332,103.352,68.817,103.352z M98.81,193.345c-5.519,0-9.986-4.469-9.986-9.995c0-5.524,4.468-9.998,9.986-9.998
	c5.532,0,10.01,4.474,10.01,9.998C108.819,188.876,104.342,193.345,98.81,193.345z M98.81,163.354
	c-5.519,0-9.986-4.489-9.986-10.009c0-5.514,4.468-9.999,9.986-9.999c5.532,0,10.01,4.485,10.01,9.999
	C108.819,158.865,104.342,163.354,98.81,163.354z M98.81,133.351c-5.519,0-9.986-4.491-9.986-10.005s4.468-10.007,9.986-10.007
	c5.532,0,10.01,4.493,10.01,10.007S104.342,133.351,98.81,133.351z M98.81,103.352c-5.519,0-9.986-4.482-9.986-9.999
	c0-5.525,4.468-10.002,9.986-10.002c5.532,0,10.01,4.477,10.01,10.002C108.819,98.869,104.342,103.352,98.81,103.352z
	 M128.821,193.345c-5.532,0-10.004-4.469-10.004-9.995c0-5.524,4.472-9.998,10.004-9.998c5.515,0,9.993,4.474,9.993,9.998
	C138.814,188.876,134.336,193.345,128.821,193.345z M128.821,163.354c-5.532,0-10.004-4.489-10.004-10.009
	c0-5.514,4.472-9.999,10.004-9.999c5.515,0,9.993,4.485,9.993,9.999C138.814,158.865,134.336,163.354,128.821,163.354z
	 M128.821,133.351c-5.532,0-10.004-4.491-10.004-10.005s4.472-10.007,10.004-10.007c5.515,0,9.993,4.493,9.993,10.007
	S134.336,133.351,128.821,133.351z M128.821,103.352c-5.532,0-10.004-4.482-10.004-9.999c0-5.525,4.472-10.002,10.004-10.002
	c5.515,0,9.993,4.477,9.993,10.002C138.814,98.869,134.336,103.352,128.821,103.352z M158.821,193.345
	c-5.525,0-9.999-4.469-9.999-9.995c0-5.524,4.474-9.998,9.999-9.998c5.514,0,10.01,4.474,10.01,9.998
	C168.831,188.876,164.335,193.345,158.821,193.345z M158.821,163.354c-5.525,0-9.999-4.489-9.999-10.009
	c0-5.514,4.474-9.999,9.999-9.999c5.514,0,10.01,4.485,10.01,9.999C168.831,158.865,164.335,163.354,158.821,163.354z
	 M158.821,133.351c-5.525,0-9.999-4.491-9.999-10.005s4.474-10.007,9.999-10.007c5.514,0,10.01,4.493,10.01,10.007
	S164.335,133.351,158.821,133.351z M158.821,103.352c-5.525,0-9.999-4.482-9.999-9.999c0-5.525,4.474-10.002,9.999-10.002
	c5.514,0,10.01,4.477,10.01,10.002C168.831,98.869,164.335,103.352,158.821,103.352z M168.836,63.356H58.818V33.351h110.018V63.356z
	"/>
</svg>
