<?xml version="1.0" encoding="utf-8"?>
<!-- Generator: Adobe Illustrator 18.1.1, SVG Export Plug-In . SVG Version: 6.00 Build 0)  -->
<svg version="1.1" id="Layer_1" xmlns="http://www.w3.org/2000/svg" xmlns:xlink="http://www.w3.org/1999/xlink" x="0px" y="0px"
	 viewBox="0 0 200 200" enable-background="new 0 0 200 200" xml:space="preserve">
<path fill="#231F20" d="M199.6,76.8c-1.1-3.5-4.4-5.9-8.1-5.9h-63.7l-19.7-60.6c-1.1-3.5-4.4-5.9-8.1-5.9c-3.7,0-7,2.4-8.1,5.9
	L72.2,70.9H8.5c-3.7,0-7,2.4-8.1,5.9c-1.2,3.5,0.1,7.4,3.1,9.5L55,123.8l-19.7,60.5c-1.1,3.5,0.1,7.4,3.1,9.5c1.5,1.1,3.3,1.6,5,1.6
	c1.8,0,3.5-0.5,5-1.6l51.5-37.4l51.5,37.4c3,2.2,7,2.2,10,0c3-2.2,4.2-6,3.1-9.5L145,123.8l51.5-37.4
	C199.5,84.2,200.7,80.3,199.6,76.8z M129.9,113.6c-3,2.2-4.2,6-3.1,9.5l13.5,41.5L105,139c-1.5-1.1-3.3-1.6-5-1.6
	c-1.7,0-3.5,0.5-5,1.6l-35.3,25.7l13.5-41.5c1.1-3.5-0.1-7.4-3.1-9.5L34.8,88h43.6c3.7,0,7-2.4,8.1-5.9L100,40.6l13.5,41.5
	c1.1,3.5,4.4,5.9,8.1,5.9h43.6L129.9,113.6z"/>
</svg>
