<?xml version="1.0" encoding="utf-8"?>
<!-- Generator: Adobe Illustrator 16.0.0, SVG Export Plug-In . SVG Version: 6.00 Build 0)  -->
<!DOCTYPE svg PUBLIC "-//W3C//DTD SVG 1.1//EN" "http://www.w3.org/Graphics/SVG/1.1/DTD/svg11.dtd">
<svg version="1.1" id="Layer_2" xmlns="http://www.w3.org/2000/svg" xmlns:xlink="http://www.w3.org/1999/xlink" x="0px" y="0px"
	 width="228px" height="228px" viewBox="0 0 228 228" enable-background="new 0 0 228 228" xml:space="preserve">
<path d="M216.164,90.233c-1.177-3.613-4.533-6.044-8.319-6.044h-65.332L122.32,22.053c-1.162-3.6-4.533-6.053-8.329-6.053
	c-3.785,0-7.146,2.453-8.312,6.053L85.484,84.189H20.152c-3.784,0-7.142,2.431-8.313,6.044c-1.181,3.595,0.102,7.543,3.176,9.791
	l52.854,38.394l-20.188,62.12c-1.164,3.611,0.116,7.562,3.174,9.786c1.531,1.115,3.341,1.676,5.148,1.676
	c1.807,0,3.606-0.561,5.127-1.676l52.861-38.392l52.867,38.392c3.066,2.226,7.22,2.226,10.28,0c3.062-2.225,4.35-6.175,3.184-9.786
	l-20.193-62.12l52.849-38.394C216.058,97.776,217.34,93.828,216.164,90.233z M144.693,127.986c-3.063,2.236-4.348,6.174-3.173,9.781
	l13.847,42.58l-36.217-26.32c-1.54-1.114-3.352-1.659-5.159-1.659c-1.793,0-3.607,0.545-5.133,1.659l-36.217,26.32l13.829-42.58
	c1.178-3.607-0.098-7.545-3.165-9.781l-36.215-26.308h44.75c3.791,0,7.16-2.448,8.336-6.049l13.814-42.563l13.837,42.563
	c1.175,3.601,4.527,6.049,8.334,6.049H180.9L144.693,127.986z"/>
</svg>
