<?xml version="1.0" encoding="utf-8"?>
<!-- Generator: Adobe Illustrator 18.1.1, SVG Export Plug-In . SVG Version: 6.00 Build 0)  -->
<svg version="1.1" id="Layer_1" xmlns="http://www.w3.org/2000/svg" xmlns:xlink="http://www.w3.org/1999/xlink" x="0px" y="0px"
	 viewBox="0 0 200 200" enable-background="new 0 0 200 200" xml:space="preserve">
<path fill="#231F20" d="M100,0.1C44.8,0.1,0.1,44.8,0.1,100s44.7,99.9,99.9,99.9c55.2,0,99.9-44.7,99.9-99.9S155.2,0.1,100,0.1z
	 M100,177.1c-42.5,0-77.1-34.5-77.1-77.1c0-42.6,34.5-77.1,77.1-77.1c42.6,0,77.1,34.5,77.1,77.1C177.1,142.6,142.6,177.1,100,177.1
	z M145.9,143.7L100,100l-45.9,43.7H145.9z M54.1,56.3L100,100l45.9-43.7H54.1z"/>
</svg>
