<?xml version="1.0" encoding="utf-8"?>
<!-- Generator: Adobe Illustrator 18.1.1, SVG Export Plug-In . SVG Version: 6.00 Build 0)  -->
<svg version="1.1" id="Layer_1" xmlns="http://www.w3.org/2000/svg" xmlns:xlink="http://www.w3.org/1999/xlink" x="0px" y="0px"
	 viewBox="0 0 200 200" enable-background="new 0 0 200 200" xml:space="preserve">
<path fill="#231F20" d="M137.9,38.5V0H42.5c-11,0-20,9-20,20v160c0,11,9,20,20,20h115c11,0,20-8.9,20-20V38.5H137.9z M45.8,27.5
	h71.6v12H45.8V27.5z M154.2,169.5H45.8v-12h108.3V169.5z M154.2,137H45.8v-12h108.3V137z M154.2,104.5H45.8v-12h108.3V104.5z
	 M154.2,72H45.8V60h108.3V72z M149.9,5v21.6h21.6L149.9,5z"/>
</svg>
