<?xml version="1.0" encoding="utf-8"?>
<!-- Generator: Adobe Illustrator 18.1.1, SVG Export Plug-In . SVG Version: 6.00 Build 0)  -->
<svg version="1.1" id="Layer_1" xmlns="http://www.w3.org/2000/svg" xmlns:xlink="http://www.w3.org/1999/xlink" x="0px" y="0px"
	 viewBox="0 0 200 200" enable-background="new 0 0 200 200" xml:space="preserve">
<g>
	<path fill="#231F20" d="M174.5,35.6c4,0,7.4,1.3,10.2,3.8c2.8,2.6,4.2,5.6,4.2,9.1c0,3.5-1.4,6.5-4.2,9.1
		c-2.8,2.6-6.2,3.8-10.2,3.8h-149c-4,0-7.4-1.3-10.2-3.8c-2.8-2.5-4.2-5.6-4.2-9.1c0-3.5,1.4-6.5,4.2-9.1c2.8-2.5,6.2-3.8,10.2-3.8
		H174.5z M174.5,87.1c4,0,7.4,1.3,10.2,3.8c2.8,2.6,4.2,5.6,4.2,9.1c0,3.5-1.4,6.5-4.2,9.1c-2.8,2.6-6.2,3.8-10.2,3.8h-149
		c-4,0-7.4-1.3-10.2-3.8c-2.8-2.5-4.2-5.6-4.2-9.1c0-3.5,1.4-6.5,4.2-9.1c2.8-2.5,6.2-3.8,10.2-3.8H174.5z M174.5,138.6
		c4,0,7.4,1.3,10.2,3.8c2.8,2.6,4.2,5.6,4.2,9.1c0,3.5-1.4,6.5-4.2,9.1c-2.8,2.6-6.2,3.8-10.2,3.8h-149c-4,0-7.4-1.3-10.2-3.8
		c-2.8-2.5-4.2-5.6-4.2-9.1c0-3.5,1.4-6.5,4.2-9.1c2.8-2.5,6.2-3.8,10.2-3.8H174.5z"/>
</g>
</svg>
