<?xml version="1.0" encoding="utf-8"?>
<!-- Generator: Adobe Illustrator 18.1.1, SVG Export Plug-In . SVG Version: 6.00 Build 0)  -->
<svg version="1.1" id="Layer_1" xmlns="http://www.w3.org/2000/svg" xmlns:xlink="http://www.w3.org/1999/xlink" x="0px" y="0px"
	 viewBox="0 0 200 200" enable-background="new 0 0 200 200" xml:space="preserve">
<path fill="#231F20" d="M181.6,88.2H67.5c-3,0-5.6,1.2-7.7,3.5c-2.1,2.3-3.1,5.1-3.1,8.3c0,3.2,1.1,6,3.1,8.3
	c2.1,2.3,4.7,3.5,7.7,3.5h114.1c3,0,5.6-1.2,7.7-3.5c2.1-2.3,3.1-5.1,3.1-8.3c0-3.2-1.1-6-3.1-8.3C187.2,89.3,184.6,88.2,181.6,88.2
	z M67.5,58.3h114.1c3,0,5.6-1.2,7.7-3.5c2.1-2.3,3.1-5.1,3.1-8.3c0-3.2-1.1-6-3.1-8.3c-2.1-2.3-4.7-3.5-7.7-3.5H67.5
	c-3,0-5.6,1.2-7.7,3.5c-2.1,2.3-3.1,5.1-3.1,8.3c0,3.2,1.1,6,3.1,8.3C61.9,57.2,64.5,58.3,67.5,58.3z M181.6,141.7H67.5
	c-3,0-5.6,1.2-7.7,3.5c-2.1,2.3-3.1,5.1-3.1,8.3c0,3.2,1.1,6,3.1,8.3c2.1,2.3,4.7,3.5,7.7,3.5h114.1c3,0,5.6-1.2,7.7-3.5
	c2.1-2.3,3.1-5.1,3.1-8.3c0-3.2-1.1-6-3.1-8.3C187.2,142.8,184.6,141.7,181.6,141.7z M21,140.1c-7.4,0-13.4,6-13.4,13.4
	c0,7.4,6,13.4,13.4,13.4c7.4,0,13.4-6,13.4-13.4C34.3,146.1,28.3,140.1,21,140.1z M21,86.6c-7.4,0-13.4,6-13.4,13.4
	c0,7.4,6,13.4,13.4,13.4c7.4,0,13.4-6,13.4-13.4C34.3,92.6,28.3,86.6,21,86.6z M21,33.2c-7.4,0-13.4,6-13.4,13.4s6,13.4,13.4,13.4
	c7.4,0,13.4-6,13.4-13.4S28.3,33.2,21,33.2z"/>
</svg>
