<?xml version="1.0" encoding="utf-8"?>
<!-- Generator: Adobe Illustrator 16.0.0, SVG Export Plug-In . SVG Version: 6.00 Build 0)  -->
<!DOCTYPE svg PUBLIC "-//W3C//DTD SVG 1.1//EN" "http://www.w3.org/Graphics/SVG/1.1/DTD/svg11.dtd">
<svg version="1.1" xmlns="http://www.w3.org/2000/svg" xmlns:xlink="http://www.w3.org/1999/xlink" x="0px" y="0px" width="228px"
	 height="228px" viewBox="0 0 228 228" enable-background="new 0 0 228 228" xml:space="preserve">
<g id="Layer_1" display="none">
	<path display="inline" d="M213.856,99.527c0-55.229-44.773-100-100.002-100c-55.228,0-99.999,44.771-99.999,100
		c0,49.525,36.006,90.636,83.266,98.599l16.735,28.986l16.735-28.987C177.852,190.16,213.856,149.052,213.856,99.527z
		 M113.854,22.384c32.085,0,59.589,19.591,71.218,47.461l-54.841,54.901c-2.103-0.612-4.342-0.616-6.446-0.019l-27.268-27.27
		c1.155-3.944,0.177-8.38-2.935-11.491c-4.541-4.541-11.898-4.54-16.438,0.001c-3.115,3.114-4.093,7.555-2.932,11.503
		l-31.621,31.618c-3.782-9.106-5.88-19.088-5.88-29.562C36.712,56.922,71.255,22.384,113.854,22.384z M113.854,176.67
		c-27.948,0-52.429-14.868-65.962-37.125l34.208-34.204c2.134,0.623,4.408,0.622,6.54-0.002l27.203,27.207
		c-1.193,3.969-0.223,8.446,2.915,11.58c4.543,4.539,11.9,4.533,16.438-0.012c3.114-3.115,4.088-7.556,2.925-11.503l50.798-50.854
		c1.346,5.708,2.08,11.651,2.08,17.77C190.999,142.128,156.46,176.67,113.854,176.67z"/>
</g>
<g id="Layer_2">
	<path fill="#231F20" d="M114.019,14.019c-55.229,0-100,44.771-100,100c0,55.229,44.771,100,100,100c55.229,0,100-44.771,100-100
		C214.02,58.791,169.248,14.019,114.019,14.019z M114.019,191.162c-42.601,0-77.143-34.542-77.143-77.143
		c0-42.605,34.542-77.143,77.143-77.143c42.606,0,77.143,34.538,77.143,77.143C191.162,156.62,156.625,191.162,114.019,191.162z
		 M125.19,132.732l0.033-71.548h-22.421l0.033,71.548H125.19z M114.019,142.133c-6.824,0-12.366,5.539-12.366,12.361
		c0,6.826,5.542,12.36,12.366,12.36c6.819,0,12.361-5.534,12.361-12.36C126.38,147.672,120.838,142.133,114.019,142.133z"/>
</g>
</svg>
