<?xml version="1.0" encoding="utf-8"?>
<!-- Generator: Adobe Illustrator 18.1.1, SVG Export Plug-In . SVG Version: 6.00 Build 0)  -->
<svg version="1.1" id="Layer_1" xmlns="http://www.w3.org/2000/svg" xmlns:xlink="http://www.w3.org/1999/xlink" x="0px" y="0px"
	 viewBox="0 0 200 200" enable-background="new 0 0 200 200" xml:space="preserve">
<g>
	<path fill="#231F20" d="M100,0.1C44.8,0.1,0.1,44.8,0.1,100s44.7,99.9,99.9,99.9c55.2,0,99.9-44.7,99.9-99.9S155.2,0.1,100,0.1z
		 M100,177.1c-42.5,0-77.1-34.5-77.1-77.1c0-42.6,34.5-77.1,77.1-77.1c42.6,0,77.1,34.5,77.1,77.1
		C177.1,142.6,142.6,177.1,100,177.1z"/>
	<g>
		<polygon fill="#231F20" points="116.8,142.3 116.8,57.7 157,100 		"/>
		<path fill="#231F20" d="M75,95.3c2.5-2.5,35.1-36.8,35.1-36.8v-0.8H58.5c-3.6,0-6.6,3-6.6,6.6v71.4c0,3.6,3,6.6,6.6,6.6h51.6v-0.8
			c0,0-32.9-34.7-35-36.8C72.4,102,72,98.3,75,95.3z"/>
	</g>
</g>
</svg>
