<?xml version="1.0" encoding="utf-8"?>
<!-- Generator: Adobe Illustrator 18.1.1, SVG Export Plug-In . SVG Version: 6.00 Build 0)  -->
<svg version="1.1" id="Layer_1" xmlns="http://www.w3.org/2000/svg" xmlns:xlink="http://www.w3.org/1999/xlink" x="0px" y="0px"
	 viewBox="-306 184.3 228 228" enable-background="new -306 184.3 228 228" xml:space="preserve">
<g>
	<path d="M-192,198.4c-55.2,0-99.9,44.7-99.9,99.9s44.7,99.9,99.9,99.9c55.2,0,99.9-44.7,99.9-99.9S-136.8,198.4-192,198.4z
		 M-192,375.3c-42.5,0-77.1-34.5-77.1-77.1c0-42.6,34.5-77.1,77.1-77.1c42.6,0,77.1,34.5,77.1,77.1
		C-114.9,340.8-149.4,375.3-192,375.3z"/>
	<g>
		<polygon points="-175.2,340.6 -175.2,256 -135,298.3 		"/>
		<path d="M-217,293.6c2.5-2.5,35.1-36.8,35.1-36.8V256h-51.6c-3.6,0-6.6,3-6.6,6.6V334c0,3.6,3,6.6,6.6,6.6h51.6v-0.8
			c0,0-32.9-34.7-35-36.8C-219.6,300.3-220,296.6-217,293.6z"/>
	</g>
</g>
</svg>
