<?xml version="1.0" encoding="utf-8"?>
<!-- Generator: Adobe Illustrator 18.1.1, SVG Export Plug-In . SVG Version: 6.00 Build 0)  -->
<svg version="1.1" id="Layer_1" xmlns="http://www.w3.org/2000/svg" xmlns:xlink="http://www.w3.org/1999/xlink" x="0px" y="0px"
	 viewBox="0 0 200 200" enable-background="new 0 0 200 200" xml:space="preserve">
<path fill="#231F20" d="M185,80h-15.1c-1.5-5.4-3.7-10.5-6.3-15.3L174.2,54c5.9-5.9,5.9-15.4,0-21.2l-7.1-7.1
	c-5.9-5.9-15.4-5.9-21.2,0l-10.7,10.7c-4.8-2.7-9.9-4.8-15.3-6.3V15c0-8.3-6.7-15-15-15H95c-8.3,0-15,6.7-15,15v15.1
	c-5.4,1.5-10.5,3.7-15.3,6.3L54,25.8c-5.9-5.9-15.4-5.9-21.2,0l-7.1,7.1c-5.9,5.9-5.9,15.4,0,21.2l10.7,10.7
	c-2.7,4.8-4.8,9.9-6.3,15.3H15C6.7,80,0,86.7,0,95l0,10c0,8.3,6.7,15,15,15h15.1c1.5,5.4,3.7,10.5,6.3,15.3L25.8,146
	c-5.9,5.9-5.9,15.4,0,21.2l7.1,7.1c5.9,5.9,15.4,5.9,21.2,0l10.7-10.7c4.8,2.7,9.9,4.8,15.3,6.3V185c0,8.3,6.7,15,15,15h10
	c8.3,0,15-6.7,15-15v-15.1c5.4-1.5,10.5-3.7,15.3-6.3l10.7,10.7c5.9,5.9,15.4,5.9,21.2,0l7.1-7.1c5.9-5.9,5.9-15.4,0-21.2
	l-10.7-10.7c2.7-4.8,4.8-9.9,6.3-15.3H185c8.3,0,15-6.7,15-15V95C200,86.7,193.3,80,185,80z M100,132c-17.7,0-32-14.3-32-32
	c0-17.7,14.3-32,32-32c17.7,0,32,14.3,32,32C132,117.7,117.7,132,100,132z"/>
</svg>
