<?xml version="1.0" encoding="utf-8"?>
<!-- Generator: Adobe Illustrator 18.1.1, SVG Export Plug-In . SVG Version: 6.00 Build 0)  -->
<svg version="1.1" id="Layer_1" xmlns="http://www.w3.org/2000/svg" xmlns:xlink="http://www.w3.org/1999/xlink" x="0px" y="0px"
	 viewBox="0 0 200 200" enable-background="new 0 0 200 200" xml:space="preserve">
<g>
	<path fill="#231F20" d="M166.6,52.8c0.4,0.9,0.6,1.5,0.6,1.9c0,0.4-0.2,1.1-0.6,1.9L86.1,160.1c-1.3,1.3-2.3,1.9-2.9,1.9
		c-1.1,0-2.2-0.5-3.2-1.6l-45.6-43.9l-1-1c-0.4-0.9-0.6-1.5-0.6-1.9c0-0.2,0.2-0.8,0.6-1.6l0.6-0.6c6-6.5,10.8-11.4,14.2-14.9
		c1.3-1.3,2.2-1.9,2.6-1.9c0.9,0,1.9,0.6,3.2,1.9L80,121.6l64.6-83c0.4-0.4,1.1-0.6,1.9-0.6c0.6,0,1.4,0.2,2.3,0.6L166.6,52.8z"/>
</g>
</svg>
