<?xml version="1.0" encoding="utf-8"?>
<!-- Generator: Adobe Illustrator 16.0.0, SVG Export Plug-In . SVG Version: 6.00 Build 0)  -->
<!DOCTYPE svg PUBLIC "-//W3C//DTD SVG 1.1//EN" "http://www.w3.org/Graphics/SVG/1.1/DTD/svg11.dtd">
<svg version="1.1" id="Layer_2" xmlns="http://www.w3.org/2000/svg" xmlns:xlink="http://www.w3.org/1999/xlink" x="0px" y="0px"
	 width="228px" height="228px" viewBox="0 0 228 228" enable-background="new 0 0 228 228" xml:space="preserve">
<path d="M199,94h-15.144c-1.533-5.364-3.658-10.477-6.316-15.257l10.706-10.705c5.858-5.858,5.858-15.356,0-21.214l-7.071-7.07
	c-5.857-5.858-15.355-5.858-21.213,0l-10.705,10.705c-4.78-2.657-9.893-4.783-15.257-6.315V29c0-8.284-6.716-15-15-15h-10
	c-8.284,0-15,6.716-15,15v15.144c-5.364,1.533-10.477,3.658-15.257,6.315L68.038,39.754c-5.858-5.857-15.355-5.857-21.213,0
	l-7.071,7.071c-5.858,5.857-5.858,15.355,0,21.213l10.706,10.705c-2.658,4.78-4.783,9.893-6.316,15.257H29
	c-8.284,0.001-15,6.717-15,15l0,10c0,8.284,6.716,15.001,15,15h15.143c1.533,5.364,3.658,10.477,6.316,15.256l-10.705,10.705
	c-5.857,5.858-5.857,15.356,0,21.214l7.071,7.07c5.858,5.858,15.356,5.859,21.213,0l10.705-10.705
	c4.779,2.658,9.893,4.783,15.257,6.316V199c0,8.284,6.716,15,15,15h10c8.284,0,15-6.716,15-15v-15.144
	c5.364-1.533,10.477-3.658,15.257-6.315l10.705,10.705c5.857,5.858,15.355,5.858,21.213,0l7.071-7.071
	c5.858-5.857,5.858-15.354,0-21.213l-10.706-10.705c2.658-4.78,4.783-9.893,6.316-15.257H199c8.284,0,15.001-6.716,15-15v-10
	C214,100.716,207.284,94,199,94z M114,146c-17.673,0-32-14.327-32-32s14.327-32,32-32s32,14.327,32,32S131.673,146,114,146z"/>
</svg>
